<svg width="18" height="22" viewBox="0 0 18 22" fill="none" xmlns="http://www.w3.org/2000/svg">
<path fill-rule="evenodd" clip-rule="evenodd" d="M9 1.5C7.01088 1.5 5.10322 2.29018 3.6967 3.6967C2.29018 5.10322 1.5 7.01088 1.5 9C1.5 11.9069 3.3868 14.7032 5.41946 16.8488C6.42046 17.9054 7.424 18.7698 8.17813 19.3703C8.5082 19.6332 8.78932 19.8445 9 19.9983C9.21068 19.8445 9.4918 19.6332 9.82187 19.3703C10.576 18.7698 11.5795 17.9054 12.5805 16.8488C14.6132 14.7032 16.5 11.9069 16.5 9C16.5 7.01088 15.7098 5.10322 14.3033 3.6967C12.8968 2.29018 10.9891 1.5 9 1.5ZM9 20.9167C8.58397 21.5407 8.58378 21.5406 8.58355 21.5404L8.58115 21.5388L8.57534 21.5349L8.55494 21.5211C8.53749 21.5093 8.51245 21.4921 8.48032 21.4699C8.41607 21.4254 8.3234 21.3603 8.20639 21.2758C7.97244 21.1069 7.64071 20.8598 7.24374 20.5437C6.451 19.9125 5.39204 19.0009 4.33054 17.8804C2.2382 15.6718 0 12.5098 0 9C5.96046e-08 6.61305 0.948211 4.32387 2.63604 2.63604C4.32387 0.948211 6.61305 0 9 0C11.3869 0 13.6761 0.948212 15.364 2.63604C17.0518 4.32387 18 6.61305 18 9C18 12.5098 15.7618 15.6718 13.6695 17.8804C12.608 19.0009 11.549 19.9125 10.7563 20.5437C10.3593 20.8598 10.0276 21.1069 9.79361 21.2758C9.6766 21.3603 9.58393 21.4254 9.51968 21.4699C9.48755 21.4921 9.46251 21.5093 9.44506 21.5211L9.42466 21.5349L9.41885 21.5388L9.41706 21.54C9.41683 21.5402 9.41603 21.5407 9 20.9167ZM9 20.9167L9.41603 21.5407C9.1641 21.7087 8.83548 21.7084 8.58355 21.5404L9 20.9167Z" fill="#0075AC"/>
<path fill-rule="evenodd" clip-rule="evenodd" d="M9 7C7.89543 7 7 7.89543 7 9C7 10.1046 7.89543 11 9 11C10.1046 11 11 10.1046 11 9C11 7.89543 10.1046 7 9 7ZM5.5 9C5.5 7.067 7.067 5.5 9 5.5C10.933 5.5 12.5 7.067 12.5 9C12.5 10.933 10.933 12.5 9 12.5C7.067 12.5 5.5 10.933 5.5 9Z" fill="#0075AC"/>
</svg>
